<?xml version="1.0" encoding="UTF-8" standalone="no"?><!DOCTYPE svg PUBLIC "-//W3C//DTD SVG 1.1//EN" "http://www.w3.org/Graphics/SVG/1.1/DTD/svg11.dtd"><svg width="100%" height="100%" viewBox="0 0 1483 350" version="1.1" xmlns="http://www.w3.org/2000/svg" xmlns:xlink="http://www.w3.org/1999/xlink" xml:space="preserve" xmlns:serif="http://www.serif.com/" style="fill-rule:evenodd;clip-rule:evenodd;stroke-linejoin:round;"><rect id="Logo---Light--Docs-" serif:id="Logo - Light (Docs)" x="0" y="0" width="1482.84" height="350" style="fill:none;"/><clipPath id="_clip1"><rect x="0" y="0" width="1482.84" height="350"/></clipPath><g clip-path="url(#_clip1)"><path d="M226.868,113.385c4.28,-0.485 8.593,-0.86 12.936,-1.122c-4.259,0.554 -8.573,0.93 -12.936,1.122Zm0,-0c-93.914,10.632 -171.911,74.108 -203.507,159.942c-8.844,24.029 -14.053,49.809 -14.956,76.673c27.788,-33.471 69.705,-54.801 116.563,-54.801c106.204,0 196.816,-67.285 231.503,-161.517c9.766,-26.529 15.098,-55.194 15.098,-85.095c0,-16.63 -1.649,-32.877 -4.793,-48.587c-15.255,59.09 -65.316,104.249 -126.972,112.263" style="fill:url(#_Linear2);stroke:url(#_Linear3);stroke-width:2px;"/><g transform="matrix(335.115,0,0,335.115,463.821,297.317)"><path d="M0.133,-0.701c0.008,0 0.016,0.002 0.025,0.006c0.008,0.004 0.015,0.01 0.02,0.017l0.254,0.387l-0.043,-0.001l0.259,-0.386c0.011,-0.016 0.024,-0.023 0.041,-0.023c0.014,0 0.025,0.005 0.036,0.015c0.01,0.009 0.015,0.021 0.015,0.036l0,0.599c0,0.015 -0.005,0.027 -0.014,0.036c-0.01,0.01 -0.022,0.015 -0.038,0.015c-0.015,0 -0.028,-0.005 -0.037,-0.015c-0.01,-0.009 -0.015,-0.021 -0.015,-0.036l0,-0.507l0.032,0.007l-0.22,0.335c-0.005,0.006 -0.011,0.011 -0.019,0.016c-0.007,0.004 -0.014,0.006 -0.022,0.006c-0.008,-0 -0.015,-0.002 -0.023,-0.006c-0.007,-0.005 -0.013,-0.01 -0.018,-0.016l-0.212,-0.33l0.023,-0.04l0.001,0.535c-0.001,0.015 -0.005,0.027 -0.014,0.036c-0.009,0.01 -0.021,0.015 -0.035,0.015c-0.014,0 -0.025,-0.005 -0.034,-0.015c-0.009,-0.009 -0.014,-0.021 -0.014,-0.036l0,-0.599c0,-0.014 0.005,-0.026 0.015,-0.036c0.01,-0.01 0.023,-0.015 0.037,-0.015Z" style="fill:#002c22;fill-rule:nonzero;"/></g><g transform="matrix(335.115,0,0,335.115,739.117,297.317)"><path d="M0.164,-0.051c0,0.015 -0.005,0.027 -0.014,0.037c-0.009,0.009 -0.021,0.014 -0.036,0.014c-0.014,0 -0.026,-0.005 -0.035,-0.014c-0.01,-0.01 -0.015,-0.022 -0.015,-0.037l0,-0.428c0,-0.015 0.005,-0.027 0.015,-0.036c0.009,-0.01 0.021,-0.015 0.035,-0.015c0.015,0 0.027,0.005 0.036,0.015c0.009,0.009 0.014,0.021 0.014,0.036l0,0.428Zm-0.051,-0.545c-0.019,0 -0.033,-0.003 -0.042,-0.01c-0.009,-0.007 -0.013,-0.019 -0.013,-0.036l-0,-0.016c-0,-0.017 0.005,-0.028 0.014,-0.035c0.009,-0.007 0.023,-0.01 0.042,-0.01c0.02,0 0.034,0.004 0.043,0.011c0.009,0.007 0.013,0.018 0.013,0.034l-0,0.016c-0,0.017 -0.005,0.029 -0.014,0.036c-0.009,0.007 -0.023,0.01 -0.043,0.01Z" style="fill:#002c22;fill-rule:nonzero;"/></g><g transform="matrix(335.115,0,0,335.115,815.691,297.317)"><path d="M0.039,-0.082c-0.006,-0.009 -0.009,-0.02 -0.008,-0.032c0,-0.012 0.008,-0.023 0.021,-0.032c0.009,-0.006 0.019,-0.008 0.029,-0.007c0.011,0.001 0.02,0.006 0.03,0.016c0.019,0.02 0.04,0.036 0.062,0.048c0.023,0.012 0.051,0.018 0.084,0.018c0.013,-0.001 0.027,-0.003 0.041,-0.006c0.014,-0.004 0.026,-0.01 0.036,-0.02c0.01,-0.01 0.015,-0.024 0.015,-0.043c0,-0.016 -0.005,-0.03 -0.016,-0.04c-0.011,-0.01 -0.025,-0.018 -0.042,-0.024c-0.017,-0.007 -0.036,-0.013 -0.056,-0.018c-0.022,-0.006 -0.043,-0.013 -0.065,-0.02c-0.021,-0.008 -0.041,-0.017 -0.058,-0.029c-0.018,-0.011 -0.032,-0.027 -0.043,-0.045c-0.011,-0.019 -0.016,-0.041 -0.016,-0.069c0,-0.032 0.009,-0.059 0.026,-0.081c0.018,-0.023 0.041,-0.04 0.069,-0.053c0.029,-0.012 0.06,-0.018 0.093,-0.018c0.019,-0 0.039,0.002 0.061,0.007c0.021,0.004 0.042,0.012 0.062,0.023c0.02,0.01 0.037,0.025 0.052,0.042c0.007,0.009 0.01,0.019 0.011,0.031c0.001,0.012 -0.004,0.023 -0.016,0.033c-0.008,0.006 -0.018,0.009 -0.029,0.008c-0.011,-0 -0.021,-0.004 -0.028,-0.011c-0.013,-0.016 -0.029,-0.028 -0.049,-0.037c-0.02,-0.009 -0.043,-0.014 -0.068,-0.014c-0.013,0 -0.026,0.002 -0.039,0.006c-0.014,0.003 -0.025,0.01 -0.035,0.019c-0.009,0.01 -0.014,0.023 -0.014,0.041c0,0.017 0.006,0.03 0.016,0.04c0.011,0.01 0.026,0.019 0.044,0.025c0.018,0.007 0.038,0.013 0.059,0.019c0.021,0.005 0.041,0.011 0.061,0.018c0.02,0.008 0.039,0.017 0.055,0.029c0.017,0.011 0.03,0.026 0.04,0.045c0.01,0.018 0.016,0.041 0.016,0.069c-0,0.032 -0.01,0.06 -0.029,0.083c-0.018,0.023 -0.042,0.041 -0.071,0.053c-0.029,0.012 -0.06,0.018 -0.092,0.018c-0.038,-0 -0.076,-0.007 -0.113,-0.021c-0.038,-0.013 -0.07,-0.037 -0.096,-0.071Z" style="fill:#002c22;fill-rule:nonzero;"/></g><g transform="matrix(335.115,0,0,335.115,975.792,297.317)"><path d="M0.063,-0.52l0.235,0.001c0.014,-0 0.025,0.004 0.034,0.013c0.009,0.009 0.013,0.02 0.013,0.033c-0,0.013 -0.004,0.024 -0.013,0.032c-0.009,0.009 -0.02,0.013 -0.034,0.013l-0.236,0c-0.013,0 -0.024,-0.004 -0.033,-0.013c-0.009,-0.009 -0.013,-0.02 -0.013,-0.033c-0,-0.013 0.004,-0.024 0.013,-0.033c0.009,-0.008 0.02,-0.012 0.033,-0.012Zm0.106,-0.131c0.015,0 0.027,0.005 0.036,0.015c0.009,0.009 0.013,0.021 0.013,0.036l0,0.464c0,0.012 0.003,0.022 0.007,0.029c0.004,0.007 0.009,0.012 0.016,0.015c0.007,0.003 0.014,0.004 0.022,0.004c0.007,-0 0.014,-0.001 0.019,-0.004c0.006,-0.002 0.013,-0.004 0.021,-0.004c0.008,0 0.015,0.004 0.022,0.011c0.006,0.008 0.01,0.018 0.01,0.03c-0,0.016 -0.009,0.029 -0.026,0.039c-0.017,0.01 -0.036,0.015 -0.056,0.015c-0.012,-0 -0.025,-0.001 -0.041,-0.003c-0.015,-0.002 -0.03,-0.007 -0.044,-0.015c-0.014,-0.008 -0.026,-0.021 -0.035,-0.039c-0.01,-0.017 -0.015,-0.042 -0.015,-0.074l0,-0.468c0,-0.015 0.005,-0.027 0.015,-0.036c0.01,-0.01 0.022,-0.015 0.036,-0.015Z" style="fill:#002c22;fill-rule:nonzero;"/></g><g transform="matrix(335.115,0,0,335.115,1105.06,297.317)"><path d="M0.178,-0.051c0,0.015 -0.005,0.027 -0.014,0.036c-0.01,0.01 -0.022,0.015 -0.036,0.015c-0.014,-0 -0.026,-0.005 -0.036,-0.015c-0.009,-0.009 -0.014,-0.021 -0.014,-0.036l0,-0.638c0,-0.015 0.005,-0.027 0.015,-0.036c0.01,-0.01 0.022,-0.015 0.036,-0.015c0.015,0 0.026,0.005 0.036,0.015c0.009,0.009 0.013,0.021 0.013,0.036l0,0.638Z" style="fill:#002c22;fill-rule:nonzero;"/></g><g transform="matrix(335.115,0,0,335.115,1187.67,297.317)"><path d="M0.315,0.01c-0.055,0 -0.103,-0.012 -0.144,-0.035c-0.041,-0.023 -0.072,-0.054 -0.095,-0.095c-0.022,-0.04 -0.033,-0.086 -0.033,-0.138c0,-0.058 0.012,-0.109 0.036,-0.15c0.023,-0.042 0.054,-0.074 0.092,-0.096c0.038,-0.022 0.079,-0.033 0.121,-0.033c0.033,-0 0.064,0.006 0.093,0.019c0.03,0.012 0.056,0.03 0.078,0.053c0.023,0.023 0.041,0.05 0.055,0.081c0.013,0.031 0.02,0.065 0.02,0.102c0,0.014 -0.005,0.025 -0.015,0.033c-0.01,0.009 -0.022,0.013 -0.035,0.013l-0.389,0l-0.024,-0.084l0.376,-0.001l-0.019,0.018l0,-0.025c-0.002,-0.023 -0.009,-0.044 -0.023,-0.061c-0.014,-0.018 -0.032,-0.031 -0.052,-0.041c-0.021,-0.01 -0.042,-0.015 -0.065,-0.015c-0.02,0 -0.039,0.003 -0.057,0.009c-0.019,0.007 -0.035,0.017 -0.049,0.031c-0.015,0.014 -0.026,0.032 -0.034,0.055c-0.009,0.024 -0.013,0.052 -0.013,0.086c0,0.037 0.008,0.069 0.023,0.096c0.015,0.028 0.036,0.049 0.062,0.064c0.026,0.015 0.054,0.022 0.086,0.022c0.024,0 0.045,-0.002 0.061,-0.007c0.016,-0.005 0.029,-0.011 0.04,-0.019c0.01,-0.007 0.02,-0.014 0.028,-0.021c0.01,-0.006 0.02,-0.009 0.03,-0.009c0.012,0 0.022,0.004 0.03,0.013c0.008,0.008 0.012,0.018 0.012,0.029c0,0.015 -0.007,0.028 -0.022,0.04c-0.018,0.017 -0.043,0.033 -0.075,0.046c-0.031,0.013 -0.064,0.02 -0.099,0.02Z" style="fill:#002c22;fill-rule:nonzero;"/></g><g transform="matrix(335.115,0,0,335.115,1382.54,297.317)"></g></g><defs><linearGradient id="_Linear2" x1="0" y1="0" x2="1" y2="0" gradientUnits="userSpaceOnUse" gradientTransform="matrix(181.582,0,0,175,189.987,175)"><stop offset="0" style="stop-color:#43ff92;stop-opacity:1"/><stop offset="1" style="stop-color:#00c6ff;stop-opacity:1"/></linearGradient><linearGradient id="_Linear3" x1="0" y1="0" x2="1" y2="0" gradientUnits="userSpaceOnUse" gradientTransform="matrix(363.165,0,0,350,8.40467,175)"><stop offset="0" style="stop-color:#43ff92;stop-opacity:1"/><stop offset="1" style="stop-color:#02c7fc;stop-opacity:1"/></linearGradient></defs></svg>