<svg xmlns="http://www.w3.org/2000/svg" viewBox="0 0 64 64" fill="none">
  <rect width="64" height="64" rx="14" fill="#0C66E4" />
  <path
    d="M18 18H33.5C39.299 18 44 22.701 44 28.5V46H30.5C24.701 46 20 41.299 20 35.5V20C20 18.895 20.895 18 22 18H18Z"
    fill="white"
    fill-opacity="0.96"
  />
  <path
    d="M29 18H43C44.105 18 45 18.895 45 20V34C45 39.523 40.523 44 35 44H21V28C21 22.477 25.477 18 31 18H29Z"
    fill="#B3D4FF"
  />
  <path
    d="M31 18H43C44.105 18 45 18.895 45 20V32C45 37.523 40.523 42 35 42H23V26C23 21.582 26.582 18 31 18Z"
    fill="white"
  />
</svg>
